<?xml version="1.0" standalone="no"?>
<!DOCTYPE svg PUBLIC "-//W3C//DTD SVG 20010904//EN"
 "http://www.w3.org/TR/2001/REC-SVG-20010904/DTD/svg10.dtd">
<svg version="1.0" xmlns="http://www.w3.org/2000/svg"
 width="764.000000pt" height="764.000000pt" viewBox="0 0 764.000000 764.000000"
 preserveAspectRatio="xMidYMid meet">
<metadata>
Created by potrace 1.14, written by Peter Selinger 2001-2017
</metadata>
<g transform="translate(0.000000,764.000000) scale(0.100000,-0.100000)"
fill="#000000" stroke="none">
<path d="M5053 7612 c-17 -15 -40 -34 -50 -42 -10 -8 -41 -33 -68 -55 -28 -22
-56 -44 -63 -50 -8 -5 -26 -21 -42 -35 -16 -14 -41 -34 -56 -45 -15 -11 -66
-51 -114 -90 -48 -38 -104 -83 -125 -100 -21 -16 -55 -43 -75 -60 -20 -16 -54
-43 -75 -60 -21 -16 -52 -42 -69 -56 -17 -14 -112 -90 -211 -169 -99 -79 -182
-146 -185 -149 -3 -3 -23 -19 -45 -36 -22 -16 -42 -31 -45 -35 -3 -3 -43 -36
-90 -73 -47 -37 -94 -75 -106 -85 -11 -9 -37 -30 -58 -47 -99 -78 -304 -243
-326 -262 -14 -11 -128 -103 -255 -204 -126 -100 -235 -188 -242 -193 -7 -6
-25 -21 -40 -33 -29 -22 -102 -81 -138 -111 -11 -10 -85 -69 -165 -132 -80
-63 -152 -121 -160 -127 -8 -7 -67 -55 -130 -106 -132 -106 -151 -134 -126
-181 14 -26 57 -52 259 -153 249 -126 443 -229 457 -243 3 -3 21 -14 40 -24
92 -49 405 -262 516 -351 28 -22 68 -53 89 -70 49 -38 168 -137 203 -169 107
-96 161 -147 202 -188 26 -27 51 -48 56 -48 5 0 54 91 109 203 55 111 103 204
108 205 4 2 7 9 7 16 0 7 11 33 25 57 14 24 28 51 31 59 24 55 111 226 117
231 5 3 8 9 7 13 -1 6 226 465 234 473 2 2 28 -20 58 -49 79 -77 188 -177 243
-223 26 -22 58 -49 70 -60 60 -53 74 -63 79 -58 3 4 6 2 6 -4 0 -6 44 -43 98
-83 53 -40 102 -78 107 -85 6 -7 20 -15 33 -19 12 -4 22 -11 22 -15 0 -3 15
-15 33 -26 17 -10 37 -23 42 -28 9 -7 34 -24 90 -59 11 -7 22 -15 25 -18 3 -3
48 -32 100 -63 52 -32 102 -62 110 -67 8 -6 22 -13 30 -17 8 -4 17 -9 20 -12
16 -18 595 -311 614 -311 8 0 28 13 45 29 24 22 29 34 25 57 -3 16 -41 137
-85 269 -45 132 -83 247 -85 255 -2 8 -40 123 -85 255 -44 132 -82 245 -83
250 -2 6 -6 17 -9 25 -7 19 -40 121 -43 135 -2 6 -48 145 -104 310 -56 165
-103 307 -105 315 -3 13 -69 211 -83 250 -3 8 -6 17 -7 20 0 3 -12 37 -25 75
-13 39 -25 75 -26 80 -1 6 -32 98 -69 205 -75 223 -69 206 -80 245 -4 17 -10
35 -14 40 -3 6 -6 15 -7 20 -4 17 -64 199 -74 220 -4 11 -11 34 -15 50 -4 17
-12 44 -19 60 -16 38 -46 125 -51 145 -5 23 -136 414 -144 427 -4 8 -16 4 -38
-15z"/>
<path d="M3638 3453 c-101 -202 -186 -369 -190 -371 -5 -2 -8 -9 -8 -15 0 -15
-42 -100 -53 -108 -5 -3 -8 -8 -6 -10 2 -3 -187 -389 -195 -396 -1 -2 -36 29
-77 68 -41 39 -103 96 -138 128 -34 31 -76 67 -91 81 -33 29 -34 30 -165 136
-105 84 -342 255 -435 314 -30 19 -56 38 -58 42 -2 5 -7 8 -12 8 -5 0 -44 22
-87 48 -113 69 -300 172 -312 172 -6 0 -11 5 -11 10 0 6 -5 10 -11 10 -9 0
-122 56 -323 158 -44 22 -87 18 -113 -13 -23 -26 -23 -57 0 -115 6 -14 11 -29
12 -35 2 -5 33 -100 70 -210 37 -110 69 -207 71 -215 2 -8 13 -42 25 -75 11
-33 22 -64 23 -70 2 -5 6 -17 9 -25 7 -20 80 -242 84 -255 4 -18 225 -680 233
-700 9 -22 143 -424 146 -440 1 -5 21 -64 44 -130 23 -66 43 -124 44 -130 16
-60 30 -105 40 -130 7 -16 18 -48 25 -70 7 -22 16 -49 20 -60 10 -25 50 -145
56 -165 2 -8 20 -64 40 -125 21 -60 39 -114 40 -120 2 -10 10 -34 25 -70 4
-11 40 -119 79 -240 40 -121 82 -246 93 -277 l21 -58 36 30 c20 17 41 34 46
38 11 9 147 118 291 234 51 40 109 87 130 103 21 17 67 54 103 83 36 29 73 59
81 65 170 136 368 294 376 302 6 6 28 24 50 40 37 29 204 163 235 189 18 15
208 166 224 178 14 11 104 85 139 114 15 13 32 24 36 24 5 0 10 4 12 8 2 5 34
33 73 63 38 30 79 63 91 74 12 11 46 38 74 60 29 22 58 45 64 50 6 6 67 55
136 110 69 55 134 107 145 116 11 10 49 40 85 68 36 28 72 56 80 63 14 13 90
74 164 133 133 105 265 211 292 234 17 14 46 37 65 51 71 54 87 85 68 133 -10
22 -49 46 -223 135 -116 59 -218 109 -226 111 -8 2 -17 7 -20 10 -3 4 -30 20
-60 35 -73 37 -100 52 -192 109 -43 26 -82 47 -87 47 -5 0 -11 4 -13 8 -1 4
-23 20 -48 34 -49 28 -336 226 -385 265 -109 86 -287 233 -325 267 -113 104
-177 164 -212 199 l-37 38 -183 -368z"/>
</g>
</svg>
