<svg width="250" height="382" viewBox="0 0 250 382" fill="none" xmlns="http://www.w3.org/2000/svg">
<path d="M35.3163 130.124L53.0575 139.018C79.6781 152.363 103.971 169.916 125 191L93.25 254.667C72.2211 233.583 47.9281 216.03 21.3075 202.684L6.22745 195.125C3.19202 193.603 -0.167709 196.511 0.903519 199.733L61.5 382L215.393 258.563C217.664 256.741 217.286 253.181 214.684 251.876L196.943 242.982C170.322 229.637 146.029 212.084 125 191L156.75 127.333C177.779 148.417 202.072 165.97 228.693 179.316L243.773 186.875C246.808 188.397 250.168 185.489 249.096 182.267L188.5 0L34.6072 123.437C32.3365 125.259 32.7141 128.819 35.3163 130.124Z" fill="url(#paint0_linear_106_7)"/>
<defs>
<linearGradient id="paint0_linear_106_7" x1="125" y1="0" x2="125" y2="382" gradientUnits="userSpaceOnUse">
<stop stop-color="#76A43D"/>
<stop offset="1" stop-color="#567E2D"/>
</linearGradient>
</defs>
</svg>
